<svg xmlns="http://www.w3.org/2000/svg" viewBox="0 0 512 512" fill="none">
  <!-- Deep Navy Master Base Container -->
  <circle cx="256" cy="256" r="240" fill="#0B1F3A"/>
  
  <!-- Base Mapping Orbit Ring -->
  <circle cx="256" cy="256" r="160" stroke="#22C55E" stroke-width="16" opacity="0.85"/>
  
  <!-- Dynamic 35-Degree Orbital Mapping Contour -->
  <ellipse cx="256" cy="245" rx="185" ry="90" transform="rotate(-35 256 245)" stroke="url(#masterOrbitGrad)" stroke-width="20" fill="none"/>
  
  <!-- Ascending Athletic Silhouette (Head & Human Core) -->
  <circle cx="256" cy="188" r="22" fill="#22C55E"/>
  
  <!-- Precision Vector Body Form -->
  <path d="M246 220 C220 230, 185 250, 180 265 C215 255, 240 245, 250 270 C255 285, 245 305, 225 340 C215 355, 190 390, 185 400 C215 375, 235 345, 245 325 C260 305, 285 330, 300 360 C310 345, 325 320, 325 310 C310 295, 285 280, 275 265 C270 250, 285 215, 315 135 C310 160, 295 190, 275 210 C265 215, 255 215, 246 220 Z" fill="url(#masterBodyGrad)"/>
  
  <defs>
    <linearGradient id="masterOrbitGrad" x1="70" y1="150" x2="440" y2="340" gradientUnits="userSpaceOnUse">
      <stop stop-color="#00FF88"/>
      <stop offset="0.5" stop-color="#22D3EE"/>
      <stop offset="1" stop-color="#00A7A0"/>
    </linearGradient>
    <linearGradient id="masterBodyGrad" x1="180" y1="135" x2="325" y2="400" gradientUnits="userSpaceOnUse">
      <stop stop-color="#00FF88"/>
      <stop offset="1" stop-color="#00A7A0"/>
    </linearGradient>
  </defs>
</svg>
